<svg width="175" height="46" viewBox="0 0 175 46" fill="none" xmlns="http://www.w3.org/2000/svg">
<path d="M95.1177 18.1476V14.6987H95.6948L96.2311 14.2208L89.877 8.4932H89.0881V9.48587H87.2397L86.1384 8.4932H83.0872L76.74 14.2145L77.2763 14.698H78.1259V18.1469H76.4675C73.9873 16.0082 73.3277 11.1575 73.5594 7.54904L73.6002 7.47551H73.6202C74.7049 7.47551 75.6665 7.94954 76.2653 8.68016L76.2713 8.68798C76.7226 9.2379 76.9942 9.93018 76.9942 10.6788C76.9942 11.1951 76.8658 11.684 76.635 12.1212L76.6445 12.1009C77.1288 11.9892 77.5791 11.7806 77.9618 11.4908L77.9566 11.4947C78.3554 11.1821 78.675 10.7959 78.8937 10.3622C79.1125 9.92862 79.2253 9.45768 79.2245 8.98132C79.2245 8.23428 78.952 7.54513 78.4921 6.98973L78.499 6.99834C78.1044 6.50227 77.5463 6.13101 76.9041 5.93734C76.2618 5.74368 75.5682 5.73748 74.9219 5.91963L74.9445 5.91415C75.1744 5.78508 75.4391 5.67087 75.7177 5.58404L75.7454 5.57622C76.1241 5.45031 76.5247 5.38647 76.9283 5.3877C77.8681 5.3877 78.7195 5.72641 79.3417 6.27476L79.3408 6.27398C79.4336 5.83526 79.4059 5.38275 79.2601 4.9559L79.2662 4.97546C79.1223 4.59499 78.894 4.24491 78.5951 3.94653C78.2963 3.64816 77.9332 3.40775 77.528 3.23993C77.1228 3.07212 76.6839 2.98042 76.2381 2.97042C75.7923 2.96042 75.3489 3.03234 74.9349 3.18178L74.9566 3.17474C74.7471 3.23961 74.5435 3.31885 74.3474 3.41175L74.3726 3.4008C74.3132 3.15624 74.2256 2.91793 74.1113 2.68974L74.1218 2.71243C73.3581 1.16906 71.6068 0.440015 70.207 1.07754C69.8292 1.25203 69.5045 1.50715 69.2611 1.82067L69.2559 1.8285C69.7487 1.87183 70.2233 2.01839 70.6421 2.25648C71.0608 2.49457 71.412 2.81759 71.6676 3.19977L71.6754 3.21228C71.3508 3.06538 71.0071 2.95579 70.6522 2.88609L70.6227 2.88139C68.4705 2.46446 66.4225 3.51814 66.0554 5.23986C65.9573 5.71216 65.9898 6.19898 66.15 6.65728L66.1439 6.63694C66.625 6.14424 67.2478 5.78105 67.9436 5.5875C68.6394 5.39396 69.381 5.3776 70.0864 5.54024L70.0586 5.53476C70.4136 5.60203 70.7277 5.69903 71.0219 5.82654L70.9968 5.81637C70.2926 5.73139 69.5764 5.83789 68.9399 6.1222C68.3033 6.4065 67.7755 6.85568 67.424 7.41214L67.4144 7.42779C67.0474 7.9858 66.8546 8.62285 66.8564 9.27153C66.8564 10.4981 67.5307 11.5823 68.5643 12.2394L68.5773 12.2472C69.0216 12.5171 69.5292 12.6906 70.0604 12.7541L70.0786 12.7556C69.6959 12.1837 69.4945 11.5282 69.4963 10.8603C69.4963 10.1774 69.702 9.5375 70.0613 8.98915L70.0508 9.00635C70.3176 8.58743 70.6835 8.22668 71.1225 7.94977C71.5616 7.67287 72.0629 7.48663 72.5909 7.40432L72.6126 7.40119C71.3829 12.449 71.0428 15.966 72.0572 18.1461H69.1014V19.6167H97V18.1461H95.1177V18.1476ZM88.2186 14.7785H94.4373V18.1476H88.2186V14.7785ZM78.7932 14.1105L83.0889 10.2384L87.3846 14.1105V18.1476H82.668V15.1094H80.2824V18.1476H78.788V14.1105H78.7932Z" fill="#D9E05E"/>
<path d="M0.86 6.96V6.4H6.76C8.46667 6.4 9.77333 6.9 10.68 7.9C11.6 8.9 12.06 10.4533 12.06 12.56V13.82C12.06 15.9267 11.6 17.4867 10.68 18.5C9.77333 19.5 8.46667 20 6.76 20H0.86V19.44L1.96 19.3C2.17333 19.2733 2.3 19.22 2.34 19.14C2.38 19.0467 2.4 18.7733 2.4 18.32V8.08C2.4 7.62667 2.38 7.36 2.34 7.28C2.3 7.18667 2.17333 7.12667 1.96 7.1L0.86 6.96ZM6.66 7.1H4.8V19.3H6.66C7.34 19.3 7.88667 19.1867 8.3 18.96C8.71333 18.72 9.01333 18.28 9.2 17.64C9.4 16.9867 9.5 16.0467 9.5 14.82V11.56C9.5 10.3333 9.4 9.4 9.2 8.76C9.01333 8.12 8.71333 7.68667 8.3 7.46C7.88667 7.22 7.34 7.1 6.66 7.1ZM13.8389 10.42V9.86H17.5589V11.5C18.3722 10.2733 19.3389 9.66 20.4589 9.66C20.8722 9.66 21.2722 9.79333 21.6589 10.06C22.0456 10.3133 22.3656 10.7933 22.6189 11.5L20.8389 12.46C20.6522 11.9133 20.4322 11.5467 20.1789 11.36C19.9389 11.16 19.6789 11.06 19.3989 11.06C19.1056 11.06 18.8189 11.1533 18.5389 11.34C18.2589 11.5267 17.9722 11.8733 17.6789 12.38V18.32C17.6789 18.7733 17.6989 19.0467 17.7389 19.14C17.7789 19.22 17.9056 19.2733 18.1189 19.3L19.6189 19.44V20H13.8389V19.44L14.9389 19.3C15.1522 19.2733 15.2789 19.22 15.3189 19.14C15.3589 19.0467 15.3789 18.7733 15.3789 18.32V11.54C15.3789 11.0867 15.3589 10.82 15.3189 10.74C15.2789 10.6467 15.1522 10.5867 14.9389 10.56L13.8389 10.42ZM31.8042 17.62C31.5642 18.5533 31.1176 19.22 30.4642 19.62C29.8109 20.0067 29.0509 20.2 28.1842 20.2C26.5842 20.2 25.3842 19.74 24.5842 18.82C23.7842 17.8867 23.3842 16.6533 23.3842 15.12V14.72C23.3842 13.1867 23.7576 11.96 24.5042 11.04C25.2642 10.12 26.3576 9.66 27.7842 9.66C28.5842 9.66 29.2909 9.82 29.9042 10.14C30.5309 10.4467 31.0176 10.8933 31.3642 11.48C31.7242 12.0667 31.9042 12.78 31.9042 13.62C31.9042 13.82 31.8909 14.0333 31.8642 14.26C31.8509 14.4867 31.8176 14.7133 31.7642 14.94H25.8442V15.52C25.8442 16.9333 26.0442 17.9533 26.4442 18.58C26.8442 19.1933 27.4909 19.5 28.3842 19.5C28.9576 19.5 29.4442 19.3333 29.8442 19C30.2442 18.6533 30.4709 18.0733 30.5242 17.26L31.8042 17.62ZM27.7842 10.36C27.1309 10.36 26.6442 10.66 26.3242 11.26C26.0042 11.86 25.8442 12.8533 25.8442 14.24H29.4642C29.5176 13.9733 29.5509 13.7267 29.5642 13.5C29.5909 13.26 29.6042 13.04 29.6042 12.84C29.6042 11.9867 29.4376 11.36 29.1042 10.96C28.7709 10.56 28.3309 10.36 27.7842 10.36ZM43.5702 19.5C43.3568 19.7 43.0968 19.8667 42.7902 20C42.4968 20.1333 42.1368 20.2 41.7102 20.2C41.1635 20.2 40.7035 20.08 40.3302 19.84C39.9702 19.6 39.7302 19.26 39.6102 18.82C39.1702 19.3 38.6835 19.6533 38.1502 19.88C37.6302 20.0933 37.0968 20.2 36.5502 20.2C35.6302 20.2 34.9435 19.9467 34.4902 19.44C34.0368 18.92 33.8102 18.2733 33.8102 17.5C33.8102 16.7133 34.0968 16.08 34.6702 15.6C35.2435 15.1067 36.2568 14.86 37.7102 14.86H39.5302V13.24C39.5302 12.1333 39.3835 11.38 39.0902 10.98C38.8102 10.5667 38.4168 10.36 37.9102 10.36C37.5768 10.36 37.2702 10.4467 36.9902 10.62C36.7102 10.78 36.5102 11.0867 36.3902 11.54C36.2835 11.98 36.3035 12.62 36.4502 13.46L34.2502 13.14C34.1435 12.5267 34.2102 11.96 34.4502 11.44C34.7035 10.9067 35.1235 10.48 35.7102 10.16C36.2968 9.82667 37.0435 9.66 37.9502 9.66C38.9768 9.66 39.7702 9.82667 40.3302 10.16C40.8902 10.4933 41.2768 10.9333 41.4902 11.48C41.7168 12.0267 41.8302 12.6133 41.8302 13.24V17.86C41.8302 18.54 41.8902 18.9667 42.0102 19.14C42.1302 19.3133 42.2635 19.4 42.4102 19.4C42.6502 19.4 42.9168 19.26 43.2102 18.98L43.5702 19.5ZM37.4302 19.14C37.7768 19.14 38.1168 19.0533 38.4502 18.88C38.7968 18.6933 39.1568 18.3533 39.5302 17.86V15.56H38.0302C37.3768 15.56 36.9035 15.7133 36.6102 16.02C36.3168 16.3267 36.1702 16.8067 36.1702 17.46C36.1702 17.9933 36.2768 18.4067 36.4902 18.7C36.7035 18.9933 37.0168 19.14 37.4302 19.14ZM55.7119 19.44V20H50.3319V19.44L51.4319 19.3C51.6452 19.2733 51.7719 19.22 51.8119 19.14C51.8519 19.0467 51.8719 18.7733 51.8719 18.32V13.28C51.8719 12.36 51.7452 11.6933 51.4919 11.28C51.2385 10.8533 50.8585 10.64 50.3519 10.64C50.1385 10.64 49.8852 10.7 49.5919 10.82C49.2985 10.9267 49.0052 11.1267 48.7119 11.42C48.4319 11.7133 48.1852 12.1467 47.9719 12.72V18.32C47.9719 18.7733 47.9919 19.0467 48.0319 19.14C48.0719 19.22 48.1985 19.2733 48.4119 19.3L49.5119 19.44V20H44.1319V19.44L45.2319 19.3C45.4452 19.2733 45.5719 19.22 45.6119 19.14C45.6519 19.0467 45.6719 18.7733 45.6719 18.32V11.54C45.6719 11.0867 45.6519 10.82 45.6119 10.74C45.5719 10.6467 45.4452 10.5867 45.2319 10.56L44.1319 10.42V9.86H47.8519V11.62C48.2252 10.94 48.7052 10.4467 49.2919 10.14C49.8785 9.82 50.4719 9.66 51.0719 9.66C51.7919 9.66 52.3985 9.84667 52.8919 10.22C53.3985 10.58 53.7585 11.1 53.9719 11.78C54.3319 11.0333 54.8185 10.4933 55.4319 10.16C56.0452 9.82667 56.6585 9.66 57.2719 9.66C58.2185 9.66 58.9719 9.97333 59.5319 10.6C60.0919 11.2267 60.3719 12.1133 60.3719 13.26V18.32C60.3719 18.7733 60.3919 19.0467 60.4319 19.14C60.4719 19.22 60.5985 19.2733 60.8119 19.3L61.9119 19.44V20H56.5319V19.44L57.6319 19.3C57.8452 19.2733 57.9719 19.22 58.0119 19.14C58.0519 19.0467 58.0719 18.7733 58.0719 18.32V13.28C58.0719 12.36 57.9452 11.6933 57.6919 11.28C57.4385 10.8533 57.0585 10.64 56.5519 10.64C56.3385 10.64 56.0852 10.7 55.7919 10.82C55.4985 10.9267 55.2052 11.1333 54.9119 11.44C54.6185 11.7467 54.3652 12.1933 54.1519 12.78C54.1652 12.8467 54.1719 12.9267 54.1719 13.02C54.1719 13.1 54.1719 13.18 54.1719 13.26V18.32C54.1719 18.7733 54.1919 19.0467 54.2319 19.14C54.2719 19.22 54.3985 19.2733 54.6119 19.3L55.7119 19.44Z" fill="#D9E05E"/>
<path d="M6.88 32.936H7.216V35H1.516V34.664L2.176 34.58C2.304 34.564 2.38 34.532 2.404 34.484C2.428 34.428 2.44 34.264 2.44 33.992V27.848C2.44 27.576 2.428 27.416 2.404 27.368C2.38 27.312 2.304 27.276 2.176 27.26L1.516 27.176V26.84H4.804V27.176L4.144 27.26C4.016 27.276 3.94 27.312 3.916 27.368C3.892 27.416 3.88 27.576 3.88 27.848V34.58H5.848C6.04 34.58 6.176 34.576 6.256 34.568C6.336 34.552 6.388 34.524 6.412 34.484C6.444 34.436 6.472 34.364 6.496 34.268L6.88 32.936ZM12.9907 27.884C12.7427 27.884 12.5427 27.808 12.3907 27.656C12.2387 27.496 12.1627 27.292 12.1627 27.044C12.1627 26.796 12.2387 26.596 12.3907 26.444C12.5427 26.292 12.7427 26.216 12.9907 26.216C13.2307 26.216 13.4307 26.292 13.5907 26.444C13.7507 26.596 13.8307 26.796 13.8307 27.044C13.8307 27.292 13.7507 27.496 13.5907 27.656C13.4307 27.808 13.2307 27.884 12.9907 27.884ZM11.3827 29.252V28.916H13.6867V33.992C13.6867 34.264 13.6987 34.428 13.7227 34.484C13.7467 34.532 13.8227 34.564 13.9507 34.58L14.6107 34.664V35H11.3827V34.664L12.0427 34.58C12.1707 34.564 12.2467 34.532 12.2707 34.484C12.2947 34.428 12.3067 34.264 12.3067 33.992V29.924C12.3067 29.652 12.2947 29.492 12.2707 29.444C12.2467 29.388 12.1707 29.352 12.0427 29.336L11.3827 29.252ZM23.8398 29.924L22.1358 35H21.0438L19.3398 29.924C19.2838 29.74 19.2358 29.612 19.1958 29.54C19.1638 29.46 19.1238 29.408 19.0758 29.384C19.0358 29.36 18.9718 29.344 18.8838 29.336L18.2238 29.252V28.916H21.4638V29.252L20.8038 29.336C20.6838 29.352 20.6198 29.384 20.6118 29.432C20.6038 29.48 20.6438 29.644 20.7318 29.924L22.0518 33.908L23.3838 29.924C23.4718 29.644 23.5118 29.48 23.5038 29.432C23.5038 29.384 23.4398 29.352 23.3118 29.336L22.6518 29.252V28.916H24.9438V29.252L24.2838 29.336C24.2038 29.344 24.1398 29.36 24.0918 29.384C24.0518 29.408 24.0158 29.46 23.9838 29.54C23.9518 29.612 23.9038 29.74 23.8398 29.924ZM33.8675 33.572C33.7235 34.132 33.4555 34.532 33.0635 34.772C32.6715 35.004 32.2155 35.12 31.6955 35.12C30.7355 35.12 30.0155 34.844 29.5355 34.292C29.0555 33.732 28.8155 32.992 28.8155 32.072V31.832C28.8155 30.912 29.0395 30.176 29.4875 29.624C29.9435 29.072 30.5995 28.796 31.4555 28.796C31.9355 28.796 32.3595 28.892 32.7275 29.084C33.1035 29.268 33.3955 29.536 33.6035 29.888C33.8195 30.24 33.9275 30.668 33.9275 31.172C33.9275 31.292 33.9195 31.42 33.9035 31.556C33.8955 31.692 33.8755 31.828 33.8435 31.964H30.2915V32.312C30.2915 33.16 30.4115 33.772 30.6515 34.148C30.8915 34.516 31.2795 34.7 31.8155 34.7C32.1595 34.7 32.4515 34.6 32.6915 34.4C32.9315 34.192 33.0675 33.844 33.0995 33.356L33.8675 33.572ZM31.4555 29.216C31.0635 29.216 30.7715 29.396 30.5795 29.756C30.3875 30.116 30.2915 30.712 30.2915 31.544H32.4635C32.4955 31.384 32.5155 31.236 32.5235 31.1C32.5395 30.956 32.5475 30.824 32.5475 30.704C32.5475 30.192 32.4475 29.816 32.2475 29.576C32.0475 29.336 31.7835 29.216 31.4555 29.216ZM48.2907 35.6C48.1067 36.104 47.9027 36.508 47.6787 36.812C47.4627 37.116 47.1947 37.336 46.8747 37.472C46.5547 37.608 46.1547 37.676 45.6747 37.676V36.356C46.1627 36.356 46.5547 36.32 46.8507 36.248C47.1547 36.184 47.3867 36.076 47.5467 35.924C47.7147 35.78 47.8387 35.592 47.9187 35.36L48.0387 35H47.4147L45.7107 29.924C45.6547 29.74 45.6067 29.612 45.5667 29.54C45.5347 29.46 45.4947 29.408 45.4467 29.384C45.4067 29.36 45.3427 29.344 45.2547 29.336L44.5947 29.252V28.916H47.8347V29.252L47.1747 29.336C47.0787 29.344 47.0187 29.376 46.9947 29.432C46.9787 29.48 47.0147 29.644 47.1027 29.924L48.4107 33.884L49.7667 29.876C49.8547 29.62 49.8907 29.472 49.8747 29.432C49.8667 29.384 49.8027 29.352 49.6827 29.336L49.0227 29.252V28.916H51.3147V29.252L50.6547 29.336C50.5347 29.352 50.4547 29.384 50.4147 29.432C50.3747 29.48 50.3107 29.628 50.2227 29.876L48.2907 35.6ZM60.6705 31.832V32.072C60.6705 32.992 60.4305 33.732 59.9505 34.292C59.4785 34.844 58.8025 35.12 57.9225 35.12C57.0425 35.12 56.3625 34.844 55.8825 34.292C55.4105 33.732 55.1745 32.992 55.1745 32.072V31.832C55.1745 30.912 55.4105 30.176 55.8825 29.624C56.3625 29.072 57.0425 28.796 57.9225 28.796C58.8025 28.796 59.4785 29.072 59.9505 29.624C60.4305 30.176 60.6705 30.912 60.6705 31.832ZM59.1945 31.592C59.1945 30.736 59.0865 30.128 58.8705 29.768C58.6545 29.4 58.3385 29.216 57.9225 29.216C57.5145 29.216 57.1985 29.4 56.9745 29.768C56.7585 30.128 56.6505 30.736 56.6505 31.592V32.312C56.6505 33.16 56.7585 33.772 56.9745 34.148C57.1985 34.516 57.5145 34.7 57.9225 34.7C58.3385 34.7 58.6545 34.516 58.8705 34.148C59.0865 33.772 59.1945 33.16 59.1945 32.312V31.592ZM72.0888 34.664V35H69.8568V33.944C69.6328 34.352 69.3448 34.652 68.9928 34.844C68.6408 35.028 68.2848 35.12 67.9248 35.12C67.3568 35.12 66.9048 34.932 66.5688 34.556C66.2328 34.172 66.0648 33.64 66.0648 32.96V29.924C66.0648 29.652 66.0528 29.492 66.0288 29.444C66.0048 29.388 65.9288 29.352 65.8008 29.336L65.1408 29.252V28.916H67.4448V32.948C67.4448 33.5 67.5208 33.904 67.6728 34.16C67.8328 34.408 68.0608 34.532 68.3568 34.532C68.4848 34.532 68.6328 34.5 68.8008 34.436C68.9768 34.364 69.1528 34.24 69.3288 34.064C69.5048 33.88 69.6568 33.62 69.7848 33.284V29.924C69.7848 29.652 69.7728 29.488 69.7488 29.432C69.7248 29.376 69.6488 29.344 69.5208 29.336L68.6208 29.252V28.916H71.1648V33.992C71.1648 34.264 71.1768 34.428 71.2008 34.484C71.2248 34.532 71.3008 34.564 71.4288 34.58L72.0888 34.664ZM76.2821 29.252V28.916H78.5141V29.9C79.0021 29.164 79.5821 28.796 80.2541 28.796C80.5021 28.796 80.7421 28.876 80.9741 29.036C81.2061 29.188 81.3981 29.476 81.5501 29.9L80.4821 30.476C80.3701 30.148 80.2381 29.928 80.0861 29.816C79.9421 29.696 79.7861 29.636 79.6181 29.636C79.4421 29.636 79.2701 29.692 79.1021 29.804C78.9341 29.916 78.7621 30.124 78.5861 30.428V33.992C78.5861 34.264 78.5981 34.428 78.6221 34.484C78.6461 34.532 78.7221 34.564 78.8501 34.58L79.7501 34.664V35H76.2821V34.664L76.9421 34.58C77.0701 34.564 77.1461 34.532 77.1701 34.484C77.1941 34.428 77.2061 34.264 77.2061 33.992V29.924C77.2061 29.652 77.1941 29.492 77.1701 29.444C77.1461 29.388 77.0701 29.352 76.9421 29.336L76.2821 29.252ZM98.5007 34.664V35H96.2687V34.004C96.0447 34.372 95.7927 34.652 95.5127 34.844C95.2407 35.028 94.9167 35.12 94.5407 35.12C93.8687 35.12 93.3327 34.856 92.9327 34.328C92.5407 33.792 92.3447 33.044 92.3447 32.084V31.844C92.3447 30.916 92.5727 30.176 93.0287 29.624C93.4927 29.072 94.1247 28.796 94.9247 28.796C95.4047 28.796 95.8287 28.916 96.1967 29.156V27.128C96.1967 26.856 96.1847 26.696 96.1607 26.648C96.1367 26.592 96.0607 26.556 95.9327 26.54L95.2727 26.456V26.12H97.5767V33.992C97.5767 34.264 97.5887 34.428 97.6127 34.484C97.6367 34.532 97.7127 34.564 97.8407 34.58L98.5007 34.664ZM93.8207 32.444C93.8207 33.188 93.9127 33.732 94.0967 34.076C94.2807 34.42 94.5327 34.592 94.8527 34.592C95.0527 34.592 95.2607 34.512 95.4767 34.352C95.7007 34.184 95.9407 33.848 96.1967 33.344V29.72C95.8927 29.416 95.5207 29.264 95.0807 29.264C94.6407 29.264 94.3207 29.464 94.1207 29.864C93.9207 30.256 93.8207 30.796 93.8207 31.484V32.444ZM102.688 29.252V28.916H104.92V29.9C105.408 29.164 105.988 28.796 106.66 28.796C106.908 28.796 107.148 28.876 107.38 29.036C107.612 29.188 107.804 29.476 107.956 29.9L106.888 30.476C106.776 30.148 106.644 29.928 106.492 29.816C106.348 29.696 106.192 29.636 106.024 29.636C105.848 29.636 105.676 29.692 105.508 29.804C105.34 29.916 105.168 30.124 104.992 30.428V33.992C104.992 34.264 105.004 34.428 105.028 34.484C105.052 34.532 105.128 34.564 105.256 34.58L106.156 34.664V35H102.688V34.664L103.348 34.58C103.476 34.564 103.552 34.532 103.576 34.484C103.6 34.428 103.612 34.264 103.612 33.992V29.924C103.612 29.652 103.6 29.492 103.576 29.444C103.552 29.388 103.476 29.352 103.348 29.336L102.688 29.252ZM117.187 33.572C117.043 34.132 116.775 34.532 116.383 34.772C115.991 35.004 115.535 35.12 115.015 35.12C114.055 35.12 113.335 34.844 112.855 34.292C112.375 33.732 112.135 32.992 112.135 32.072V31.832C112.135 30.912 112.359 30.176 112.807 29.624C113.263 29.072 113.919 28.796 114.775 28.796C115.255 28.796 115.679 28.892 116.047 29.084C116.423 29.268 116.715 29.536 116.923 29.888C117.139 30.24 117.247 30.668 117.247 31.172C117.247 31.292 117.239 31.42 117.223 31.556C117.215 31.692 117.195 31.828 117.163 31.964H113.611V32.312C113.611 33.16 113.731 33.772 113.971 34.148C114.211 34.516 114.599 34.7 115.135 34.7C115.479 34.7 115.771 34.6 116.011 34.4C116.251 34.192 116.387 33.844 116.419 33.356L117.187 33.572ZM114.775 29.216C114.383 29.216 114.091 29.396 113.899 29.756C113.707 30.116 113.611 30.712 113.611 31.544H115.783C115.815 31.384 115.835 31.236 115.843 31.1C115.859 30.956 115.867 30.824 115.867 30.704C115.867 30.192 115.767 29.816 115.567 29.576C115.367 29.336 115.103 29.216 114.775 29.216ZM127.967 34.7C127.839 34.82 127.683 34.92 127.499 35C127.323 35.08 127.107 35.12 126.851 35.12C126.523 35.12 126.247 35.048 126.023 34.904C125.807 34.76 125.663 34.556 125.591 34.292C125.327 34.58 125.035 34.792 124.715 34.928C124.403 35.056 124.083 35.12 123.755 35.12C123.203 35.12 122.791 34.968 122.519 34.664C122.247 34.352 122.111 33.964 122.111 33.5C122.111 33.028 122.283 32.648 122.627 32.36C122.971 32.064 123.579 31.916 124.451 31.916H125.543V30.944C125.543 30.28 125.455 29.828 125.279 29.588C125.111 29.34 124.875 29.216 124.571 29.216C124.371 29.216 124.187 29.268 124.019 29.372C123.851 29.468 123.731 29.652 123.659 29.924C123.595 30.188 123.607 30.572 123.695 31.076L122.375 30.884C122.311 30.516 122.351 30.176 122.495 29.864C122.647 29.544 122.899 29.288 123.251 29.096C123.603 28.896 124.051 28.796 124.595 28.796C125.211 28.796 125.687 28.896 126.023 29.096C126.359 29.296 126.591 29.56 126.719 29.888C126.855 30.216 126.923 30.568 126.923 30.944V33.716C126.923 34.124 126.959 34.38 127.031 34.484C127.103 34.588 127.183 34.64 127.271 34.64C127.415 34.64 127.575 34.556 127.751 34.388L127.967 34.7ZM124.283 34.484C124.491 34.484 124.695 34.432 124.895 34.328C125.103 34.216 125.319 34.012 125.543 33.716V32.336H124.643C124.251 32.336 123.967 32.428 123.791 32.612C123.615 32.796 123.527 33.084 123.527 33.476C123.527 33.796 123.591 34.044 123.719 34.22C123.847 34.396 124.035 34.484 124.283 34.484ZM138.972 34.664V35H135.744V34.664L136.404 34.58C136.532 34.564 136.608 34.532 136.632 34.484C136.656 34.428 136.668 34.264 136.668 33.992V30.968C136.668 30.416 136.592 30.016 136.44 29.768C136.288 29.512 136.06 29.384 135.756 29.384C135.628 29.384 135.476 29.42 135.3 29.492C135.124 29.556 134.948 29.676 134.772 29.852C134.604 30.028 134.456 30.288 134.328 30.632V33.992C134.328 34.264 134.34 34.428 134.364 34.484C134.388 34.532 134.464 34.564 134.592 34.58L135.252 34.664V35H132.024V34.664L132.684 34.58C132.812 34.564 132.888 34.532 132.912 34.484C132.936 34.428 132.948 34.264 132.948 33.992V29.924C132.948 29.652 132.936 29.492 132.912 29.444C132.888 29.388 132.812 29.352 132.684 29.336L132.024 29.252V28.916H134.256V29.972C134.48 29.564 134.768 29.268 135.12 29.084C135.472 28.892 135.828 28.796 136.188 28.796C136.62 28.796 136.984 28.908 137.28 29.132C137.584 29.348 137.8 29.66 137.928 30.068C138.144 29.62 138.436 29.296 138.804 29.096C139.172 28.896 139.54 28.796 139.908 28.796C140.476 28.796 140.928 28.984 141.264 29.36C141.6 29.736 141.768 30.268 141.768 30.956V33.992C141.768 34.264 141.78 34.428 141.804 34.484C141.828 34.532 141.904 34.564 142.032 34.58L142.692 34.664V35H139.464V34.664L140.124 34.58C140.252 34.564 140.328 34.532 140.352 34.484C140.376 34.428 140.388 34.264 140.388 33.992V30.968C140.388 30.416 140.312 30.016 140.16 29.768C140.008 29.512 139.78 29.384 139.476 29.384C139.348 29.384 139.196 29.42 139.02 29.492C138.844 29.556 138.668 29.68 138.492 29.864C138.316 30.048 138.164 30.316 138.036 30.668C138.044 30.708 138.048 30.756 138.048 30.812C138.048 30.86 138.048 30.908 138.048 30.956V33.992C138.048 34.264 138.06 34.428 138.084 34.484C138.108 34.532 138.184 34.564 138.312 34.58L138.972 34.664Z" fill="#D9E05E"/>
<path d="M108.5 19.5C109.3 19.5 109.96 19.3133 110.48 18.94C111.013 18.5533 111.28 17.9533 111.28 17.14C111.28 16.54 111.1 16.04 110.74 15.64C110.393 15.24 109.767 14.9067 108.86 14.64L107 14.08C106.067 13.8 105.347 13.32 104.84 12.64C104.347 11.9467 104.1 11.0867 104.1 10.06C104.1 9.38 104.253 8.74667 104.56 8.16C104.88 7.57333 105.36 7.1 106 6.74C106.653 6.38 107.473 6.2 108.46 6.2C109.54 6.2 110.413 6.4 111.08 6.8C111.747 7.18667 112.213 7.69333 112.48 8.32C112.747 8.94667 112.813 9.62 112.68 10.34L110.38 10.76C110.593 9.52 110.5 8.56667 110.1 7.9C109.713 7.23333 109.08 6.9 108.2 6.9C107.52 6.9 106.973 7.1 106.56 7.5C106.16 7.9 105.96 8.47333 105.96 9.22C105.96 9.83333 106.133 10.3733 106.48 10.84C106.84 11.3067 107.427 11.6667 108.24 11.92L110.1 12.48C111.113 12.7733 111.873 13.22 112.38 13.82C112.887 14.4067 113.14 15.2267 113.14 16.28C113.14 17.0267 112.967 17.7 112.62 18.3C112.287 18.8867 111.773 19.3533 111.08 19.7C110.4 20.0333 109.547 20.2 108.52 20.2C107.773 20.2 107.067 20.0933 106.4 19.88C105.733 19.6533 105.173 19.2867 104.72 18.78C104.28 18.2733 104 17.5867 103.88 16.72L105.22 16.24C105.287 17.0933 105.473 17.76 105.78 18.24C106.1 18.7067 106.493 19.0333 106.96 19.22C107.44 19.4067 107.953 19.5 108.5 19.5ZM121.81 17.92C121.637 18.7333 121.304 19.32 120.81 19.68C120.33 20.0267 119.744 20.2 119.05 20.2C118.344 20.2 117.764 20.0467 117.31 19.74C116.857 19.42 116.524 19 116.31 18.48C116.097 17.96 115.99 17.4067 115.99 16.82V11.54C115.99 11.0867 115.97 10.82 115.93 10.74C115.89 10.6467 115.764 10.5867 115.55 10.56L114.45 10.42V9.86H115.99V7.54L118.29 7.08V9.86H121.49V10.56H118.29V17.22C118.29 18.0733 118.397 18.6667 118.61 19C118.824 19.32 119.097 19.48 119.43 19.48C119.777 19.48 120.044 19.3467 120.23 19.08C120.43 18.8133 120.557 18.3267 120.61 17.62L121.81 17.92ZM132.781 19.5C132.568 19.7 132.308 19.8667 132.001 20C131.708 20.1333 131.348 20.2 130.921 20.2C130.374 20.2 129.914 20.08 129.541 19.84C129.181 19.6 128.941 19.26 128.821 18.82C128.381 19.3 127.894 19.6533 127.361 19.88C126.841 20.0933 126.308 20.2 125.761 20.2C124.841 20.2 124.154 19.9467 123.701 19.44C123.248 18.92 123.021 18.2733 123.021 17.5C123.021 16.7133 123.308 16.08 123.881 15.6C124.454 15.1067 125.468 14.86 126.921 14.86H128.741V13.24C128.741 12.1333 128.594 11.38 128.301 10.98C128.021 10.5667 127.628 10.36 127.121 10.36C126.788 10.36 126.481 10.4467 126.201 10.62C125.921 10.78 125.721 11.0867 125.601 11.54C125.494 11.98 125.514 12.62 125.661 13.46L123.461 13.14C123.354 12.5267 123.421 11.96 123.661 11.44C123.914 10.9067 124.334 10.48 124.921 10.16C125.508 9.82667 126.254 9.66 127.161 9.66C128.188 9.66 128.981 9.82667 129.541 10.16C130.101 10.4933 130.488 10.9333 130.701 11.48C130.928 12.0267 131.041 12.6133 131.041 13.24V17.86C131.041 18.54 131.101 18.9667 131.221 19.14C131.341 19.3133 131.474 19.4 131.621 19.4C131.861 19.4 132.128 19.26 132.421 18.98L132.781 19.5ZM126.641 19.14C126.988 19.14 127.328 19.0533 127.661 18.88C128.008 18.6933 128.368 18.3533 128.741 17.86V15.56H127.241C126.588 15.56 126.114 15.7133 125.821 16.02C125.528 16.3267 125.381 16.8067 125.381 17.46C125.381 17.9933 125.488 18.4067 125.701 18.7C125.914 18.9933 126.228 19.14 126.641 19.14ZM138.24 21C137.933 21.84 137.593 22.5133 137.22 23.02C136.86 23.5267 136.413 23.8933 135.88 24.12C135.346 24.3467 134.68 24.46 133.88 24.46V22.26C134.693 22.26 135.346 22.2 135.84 22.08C136.346 21.9733 136.733 21.7933 137 21.54C137.28 21.3 137.486 20.9867 137.62 20.6L137.82 20H136.78L133.94 11.54C133.846 11.2333 133.766 11.02 133.7 10.9C133.646 10.7667 133.58 10.68 133.5 10.64C133.433 10.6 133.326 10.5733 133.18 10.56L132.08 10.42V9.86H137.48V10.42L136.38 10.56C136.22 10.5733 136.12 10.6267 136.08 10.72C136.053 10.8 136.113 11.0733 136.26 11.54L138.44 18.14L140.7 11.46C140.846 11.0333 140.906 10.7867 140.88 10.72C140.866 10.64 140.76 10.5867 140.56 10.56L139.46 10.42V9.86H143.28V10.42L142.18 10.56C141.98 10.5867 141.846 10.64 141.78 10.72C141.713 10.8 141.606 11.0467 141.46 11.46L138.24 21Z" fill="#D9E05E"/>
</svg>
